<!--
SPDX-FileCopyrightText: 2025 Devanshi Sachan <devs221102@gmail.com>
SPDX-License-Identifier: CC-BY-4.0
-->
<svg width="30" height="30" viewBox="0 0 30 30" fill="none" xmlns="http://www.w3.org/2000/svg">
<g id="Property 1=Success, Filled=No">
<path id="Union" d="M15 4C21.0753 4 26 8.92472 26 15C26 21.0753 21.0753 26 15 26C8.92472 26 4 21.0753 4 15C4 8.92472 8.92472 4 15 4ZM15 6C10.0293 6 6 10.0293 6 15C6 19.9707 10.0293 24 15 24C19.9707 24 24 19.9707 24 15C24 10.0293 19.9707 6 15 6ZM21.4141 12.167L13.333 20.248L12.626 19.541L9.29297 16.207L8.58594 15.5L10 14.0859L13.333 17.4189L19.293 11.46L20 10.7529L21.4141 12.167Z" fill="#2E7D32"/>
</g>
</svg>
