<!--
SPDX-FileCopyrightText: 2025 Devanshi Sachan <devs221102@gmail.com>
SPDX-License-Identifier: CC-BY-4.0
-->
<svg width="16" height="16" viewBox="0 0 16 16" fill="none" xmlns="http://www.w3.org/2000/svg">
<g id="SIze=16px">
<path id="Vector" d="M12 9.3335C12.7333 9.3335 13.3333 8.7335 13.3333 8.00016C13.3333 7.26683 12.7333 6.66683 12 6.66683C11.2666 6.66683 10.6666 7.26683 10.6666 8.00016C10.6666 8.7335 11.2666 9.3335 12 9.3335ZM3.99998 9.3335C4.73331 9.3335 5.33331 8.7335 5.33331 8.00016C5.33331 7.26683 4.73331 6.66683 3.99998 6.66683C3.26665 6.66683 2.66665 7.26683 2.66665 8.00016C2.66665 8.7335 3.26665 9.3335 3.99998 9.3335ZM7.99998 9.3335C8.73331 9.3335 9.33331 8.7335 9.33331 8.00016C9.33331 7.26683 8.73331 6.66683 7.99998 6.66683C7.26665 6.66683 6.66665 7.26683 6.66665 8.00016C6.66665 8.7335 7.26665 9.3335 7.99998 9.3335Z" fill="#101010"/>
</g>
</svg>
