<!--
SPDX-FileCopyrightText: 2025 Devanshi Sachan <devs221102@gmail.com>
SPDX-License-Identifier: CC-BY-4.0
-->
<svg width="20" height="20" viewBox="0 0 20 20" fill="none" xmlns="http://www.w3.org/2000/svg">
<g id="SIze=20px">
<path id="Vector" d="M15 11.6665C15.9167 11.6665 16.6667 10.9165 16.6667 9.99984C16.6667 9.08317 15.9167 8.33317 15 8.33317C14.0834 8.33317 13.3334 9.08317 13.3334 9.99984C13.3334 10.9165 14.0834 11.6665 15 11.6665ZM5.00002 11.6665C5.91669 11.6665 6.66669 10.9165 6.66669 9.99984C6.66669 9.08317 5.91669 8.33317 5.00002 8.33317C4.08335 8.33317 3.33335 9.08317 3.33335 9.99984C3.33335 10.9165 4.08335 11.6665 5.00002 11.6665ZM10 11.6665C10.9167 11.6665 11.6667 10.9165 11.6667 9.99984C11.6667 9.08317 10.9167 8.33317 10 8.33317C9.08335 8.33317 8.33335 9.08317 8.33335 9.99984C8.33335 10.9165 9.08335 11.6665 10 11.6665Z" fill="#101010"/>
</g>
</svg>
