<!--
SPDX-FileCopyrightText: 2025 Devanshi Sachan <devs221102@gmail.com>
SPDX-License-Identifier: CC-BY-4.0
-->
<svg width="20" height="20" viewBox="0 0 20 20" fill="none" xmlns="http://www.w3.org/2000/svg">
<g id="size=20px">
<path id="Vector" d="M11.6667 5.00016C11.6667 4.0835 10.9167 3.3335 10 3.3335C9.08335 3.3335 8.33335 4.0835 8.33335 5.00016C8.33335 5.91683 9.08335 6.66683 10 6.66683C10.9167 6.66683 11.6667 5.91683 11.6667 5.00016ZM11.6667 15.0002C11.6667 14.0835 10.9167 13.3335 10 13.3335C9.08335 13.3335 8.33335 14.0835 8.33335 15.0002C8.33335 15.9168 9.08335 16.6668 10 16.6668C10.9167 16.6668 11.6667 15.9168 11.6667 15.0002ZM11.6667 10.0002C11.6667 9.0835 10.9167 8.3335 10 8.3335C9.08335 8.3335 8.33335 9.0835 8.33335 10.0002C8.33335 10.9168 9.08335 11.6668 10 11.6668C10.9167 11.6668 11.6667 10.9168 11.6667 10.0002Z" fill="#101010"/>
</g>
</svg>
