<!--
SPDX-FileCopyrightText: 2025 Devanshi Sachan <devs221102@gmail.com>
SPDX-License-Identifier: CC-BY-4.0
-->
<svg width="16" height="16" viewBox="0 0 16 16" fill="none" xmlns="http://www.w3.org/2000/svg">
<g id="size=16px">
<path id="Vector" d="M9.33337 4.00033C9.33337 3.26699 8.73337 2.66699 8.00004 2.66699C7.26671 2.66699 6.66671 3.26699 6.66671 4.00033C6.66671 4.73366 7.26671 5.33366 8.00004 5.33366C8.73337 5.33366 9.33337 4.73366 9.33337 4.00033ZM9.33337 12.0003C9.33337 11.267 8.73337 10.667 8.00004 10.667C7.26671 10.667 6.66671 11.267 6.66671 12.0003C6.66671 12.7337 7.26671 13.3337 8.00004 13.3337C8.73337 13.3337 9.33337 12.7337 9.33337 12.0003ZM9.33337 8.00033C9.33337 7.26699 8.73337 6.66699 8.00004 6.66699C7.26671 6.66699 6.66671 7.26699 6.66671 8.00033C6.66671 8.73366 7.26671 9.33366 8.00004 9.33366C8.73337 9.33366 9.33337 8.73366 9.33337 8.00033Z" fill="#101010"/>
</g>
</svg>
