<!--
SPDX-FileCopyrightText: 2025 Devanshi Sachan <devs221102@gmail.com>
SPDX-License-Identifier: CC-BY-4.0
-->
<svg width="20" height="20" viewBox="0 0 20 20" fill="none" xmlns="http://www.w3.org/2000/svg">
<g id="Size=20px">
<path id="Union" d="M10.4111 2.01074C14.638 2.22489 17.9998 5.71991 18 10L17.9893 10.4111C17.7749 14.6379 14.2799 17.9998 10 18L9.58887 17.9893C5.49817 17.7821 2.21815 14.5018 2.01074 10.4111L2 10C2.00018 5.58204 5.58204 2.00019 10 2L10.4111 2.01074ZM10 3.66699C6.50251 3.66719 3.66717 6.5025 3.66699 10C3.66716 11.439 4.1474 12.7656 4.95605 13.8291C5.86227 12.6334 7.78094 11.6661 10 11.666C12.2188 11.6661 14.1366 12.6336 15.043 13.8291C15.8519 12.7655 16.3328 11.4392 16.333 10C16.3328 6.50252 13.4975 3.66721 10 3.66699ZM10 5.09961C11.3254 5.09964 12.4004 6.17455 12.4004 7.5C12.4002 8.82526 11.3253 9.89939 10 9.89941C8.67467 9.89941 7.59983 8.82528 7.59961 7.5C7.59961 6.17453 8.67453 5.09961 10 5.09961Z" fill="#101010"/>
</g>
</svg>
