<!--
SPDX-FileCopyrightText: 2025 Devanshi Sachan <devs221102@gmail.com>
SPDX-License-Identifier: CC-BY-4.0
-->
<svg width="24" height="24" viewBox="0 0 24 24" fill="none" xmlns="http://www.w3.org/2000/svg">
<g id="Size=24px">
<path id="Union" d="M12.5146 2.01367C17.7979 2.28158 21.9995 6.64928 22 11.999L21.9863 12.5146C21.7182 17.798 17.349 22 11.999 22L11.4854 21.9863C6.37234 21.7272 2.27315 17.6276 2.01367 12.5146L2 11.999C2.00047 6.47694 6.47694 2.00049 11.999 2L12.5146 2.01367ZM11.999 4.08301C7.62753 4.0835 4.08348 7.62752 4.08301 11.999C4.0831 13.7982 4.68419 15.4575 5.69531 16.7871C6.82802 15.2926 9.22539 14.0833 11.999 14.083C14.7728 14.083 17.1707 15.2926 18.3037 16.7871C19.3151 15.4575 19.9169 13.7984 19.917 11.999C19.9165 7.62722 16.3709 4.08301 11.999 4.08301ZM12 5.875C13.6567 5.87503 14.9998 7.21742 15 8.87402C15 10.5308 13.6568 11.874 12 11.874C10.3432 11.874 9 10.5309 9 8.87402C9.00025 7.2174 10.3433 5.875 12 5.875Z" fill="#101010"/>
</g>
</svg>
