<!--
SPDX-FileCopyrightText: 2025 Devanshi Sachan <devs221102@gmail.com>
SPDX-License-Identifier: CC-BY-4.0
-->
<svg width="16" height="16" viewBox="0 0 16 16" fill="none" xmlns="http://www.w3.org/2000/svg">
<g id="Size=16px">
<path id="Union" d="M8.30859 2.00781C11.4787 2.16846 13.9999 4.78996 14 8L13.9922 8.30859C13.8314 11.4786 11.2099 13.9998 8 14L7.69141 13.9922C4.62343 13.8368 2.1634 11.3765 2.00781 8.30859L2 8C2.00013 4.68653 4.68653 2.00015 8 2L8.30859 2.00781ZM8 3.25C5.37688 3.25015 3.25013 5.37688 3.25 8C3.25012 9.07936 3.61116 10.0744 4.21777 10.8721C4.89748 9.97536 6.33578 9.25008 8 9.25C9.66412 9.25009 11.1025 9.97543 11.7822 10.8721C12.389 10.0744 12.7499 9.07946 12.75 8C12.7499 5.37689 10.6231 3.25017 8 3.25ZM8 4.3252C8.99409 4.32522 9.7998 5.13091 9.7998 6.125C9.79964 7.11895 8.99398 7.92478 8 7.9248C7.006 7.9248 6.20036 7.11896 6.2002 6.125C6.2002 5.1309 7.0059 4.3252 8 4.3252Z" fill="#101010"/>
</g>
</svg>
