<svg width="53" height="52" viewBox="0 0 53 52" fill="none" xmlns="http://www.w3.org/2000/svg">
<path fill-rule="evenodd" clip-rule="evenodd" d="M24.6874 15.3839C20.4129 15.911 16.9205 18.9724 15.7567 23.0196H24.6874V29.8723H15.3426V42.5571H8.5V25.9757C8.5 16.7415 15.6376 9.17415 24.6885 8.5V15.3839H24.6874Z" fill="#C31230"/>
<path fill-rule="evenodd" clip-rule="evenodd" d="M27.6887 8.5C36.7396 9.17299 43.876 16.7403 43.876 25.9745C43.876 35.6523 36.0397 43.5 26.3757 43.5C23.479 43.5 20.7501 42.7934 18.3439 41.5459V32.9882C20.2977 35.2295 23.1701 36.6485 26.3757 36.6485C32.2604 36.6485 37.0346 31.8692 37.0346 25.9757C37.0346 20.5281 32.9545 16.0326 27.6887 15.3828V8.5Z" fill="#807F82"/>
</svg>
