<svg width="67" height="91" viewBox="0 0 67 91" fill="none" xmlns="http://www.w3.org/2000/svg">
<path d="M41.6667 0.708252H8.3333C3.75 0.708252 0.0417004 4.73949 0.0417004 9.66654L0 81.3332C0 86.2603 3.7083 90.2916 8.2917 90.2916H58.3333C62.9167 90.2916 66.6667 86.2603 66.6667 81.3332V27.5832L41.6667 0.708252ZM8.3333 9.66654H37.5L58.3333 32.0624V70.4937L50.6667 62.252C56 53.5624 55.125 41.7822 48 34.1228C43.9583 29.7781 38.6667 27.5832 33.3333 27.5832C28 27.5832 22.7083 29.7781 18.625 34.1228C10.5 42.8572 10.5 57.0114 18.625 65.701C22.6667 70.0457 28 72.2406 33.3333 72.2406C37.3333 72.2406 41.3333 70.9864 44.7917 68.5228L56.6667 81.3332H8.3333V9.66654ZM42.125 59.3854C39.7917 61.8937 36.6667 63.327 33.3333 63.327C30 63.327 26.875 61.9385 24.5417 59.3854C22.2083 56.877 20.875 53.5176 20.875 49.9343C20.875 46.3509 22.1667 42.9915 24.5417 40.4832C26.875 37.9301 30 36.5415 33.3333 36.5415C36.6667 36.5415 39.7917 37.9301 42.125 40.4832C44.4583 42.9915 45.7917 46.3509 45.7917 49.9343C45.7917 53.5176 44.5 56.877 42.125 59.3854Z" fill="#969696" fill-opacity="0.5"/>
</svg>
