<!--
SPDX-FileCopyrightText: 2025 Devanshi Sachan <devs221102@gmail.com>
SPDX-License-Identifier: CC-BY-4.0
-->
<svg width="16" height="16" viewBox="0 0 16 16" fill="none" xmlns="http://www.w3.org/2000/svg">
<path d="M5.68945 2C5.248 2.00044 4.88965 2.35825 4.88965 2.7998V4.88965H2.7998C2.35815 4.88985 2 5.24775 2 5.68945V13.2041C2.00012 13.6457 2.35822 14.0047 2.7998 14.0049H10.3145C10.7562 14.0049 11.1141 13.6458 11.1143 13.2041V11.1152H13.2041C13.6458 11.1152 14.0036 10.7561 14.0039 10.3145V2.7998C14.0039 2.35798 13.6459 2 13.2041 2H5.68945ZM9.51465 10.2979C9.51454 10.3032 9.51367 10.3091 9.51367 10.3145C9.51367 10.3197 9.51455 10.3249 9.51465 10.3301V12.4043H3.60059V6.48926H5.67285C5.67837 6.48938 5.6839 6.49023 5.68945 6.49023C5.69485 6.49023 5.70068 6.48936 5.70605 6.48926H9.51465V10.2979ZM12.4043 9.51465H11.1143V5.68945C11.1143 5.24763 10.7563 4.88965 10.3145 4.88965H6.49023V3.59961H12.4043V9.51465Z" fill="#101010"/>
</svg>
