<!--
SPDX-FileCopyrightText: 2025 Devanshi Sachan <devs221102@gmail.com>
SPDX-License-Identifier: CC-BY-4.0
-->
<svg width="16" height="16" viewBox="0 0 16 16" fill="none" xmlns="http://www.w3.org/2000/svg">
<path d="M7.7002 7.91797C7.88584 7.91795 8.06402 7.9918 8.19531 8.12305L9.97168 9.89941C10.1031 10.0308 10.1769 10.2097 10.1768 10.3955C10.1765 10.5812 10.1022 10.7595 9.9707 10.8906L6.65625 14.1924C6.56721 14.2811 6.45582 14.3441 6.33398 14.375L3.97168 14.9736C3.73288 15.0341 3.48005 14.964 3.30566 14.79C3.1314 14.6161 3.06129 14.3638 3.12109 14.125L3.71289 11.7627L3.74219 11.6729C3.77715 11.5854 3.82952 11.5056 3.89648 11.4385L7.20508 8.12402L7.31152 8.03613C7.42568 7.9599 7.5609 7.91803 7.7002 7.91797ZM9.93457 1.00879C10.1036 1.02655 10.262 1.10594 10.3779 1.23242L13.6055 4.75195C13.7236 4.88092 13.789 5.04974 13.7891 5.22461V13.4375C13.7891 13.8238 13.476 14.1372 13.0898 14.1377H8.67676V12.7383H12.3896V6.80469H9.37207C8.98576 6.80469 8.67234 6.49167 8.67188 6.10547V2.40527H4.40039V10.1641H3V1.70508C3.00005 1.31852 3.31363 1.00488 3.7002 1.00488H9.8623L9.93457 1.00879ZM5.02344 12.2891L4.7627 13.3281L5.80371 13.0654L8.48535 10.3936L7.7002 9.6084L5.02344 12.2891ZM10.0723 5.40527H12.3057L10.0723 2.96973V5.40527Z" fill="#101010"/>
</svg>
