<!--
SPDX-FileCopyrightText: 2025 Devanshi Sachan <devs221102@gmail.com>
SPDX-License-Identifier: CC-BY-4.0
-->
<svg width="16" height="16" viewBox="0 0 16 16" fill="none" xmlns="http://www.w3.org/2000/svg">
<path d="M8.001 3C10.4646 3.0001 12.2125 4.23891 13.3164 5.42773C13.8685 6.02229 14.2701 6.61491 14.5342 7.05859C14.6664 7.28077 14.766 7.46754 14.833 7.60156C14.8665 7.66852 14.8923 7.72305 14.9102 7.76172C14.9191 7.78095 14.9256 7.79715 14.9307 7.80859C14.9332 7.81413 14.9359 7.81869 14.9375 7.82227C14.9383 7.82397 14.9389 7.82588 14.9395 7.82715L14.9405 7.8291C14.9406 7.82942 14.9404 7.82956 14.251 8.125L14.9405 8.42188L14.9395 8.42383C14.9389 8.42511 14.9383 8.42692 14.9375 8.42871C14.936 8.43232 14.9332 8.43675 14.9307 8.44238C14.9256 8.45383 14.9191 8.46993 14.9102 8.48926C14.8924 8.52786 14.8665 8.58156 14.833 8.64844C14.766 8.78251 14.6666 8.96987 14.5342 9.19238C14.2701 9.63609 13.8686 10.2286 13.3164 10.8232C12.2125 12.0121 10.4647 13.2509 8.001 13.251C5.53727 13.2509 3.78857 12.0121 2.6846 10.8232C2.13262 10.2287 1.73088 9.636 1.46682 9.19238C1.33449 8.97002 1.235 8.78244 1.168 8.64844C1.13461 8.58165 1.10865 8.52781 1.09085 8.48926C1.08197 8.47002 1.07541 8.45379 1.07034 8.44238C1.06794 8.43697 1.06602 8.43223 1.06448 8.42871C1.06366 8.42696 1.06209 8.42508 1.06155 8.42383V8.42188H1.06057L1.75003 8.125L1.06057 7.8291H1.06155V7.82715C1.06213 7.82586 1.06369 7.82407 1.06448 7.82227C1.06603 7.81871 1.0679 7.81407 1.07034 7.80859C1.07542 7.79716 1.08194 7.78101 1.09085 7.76172C1.10871 7.72304 1.13445 7.66865 1.168 7.60156C1.23501 7.46755 1.33453 7.28087 1.46682 7.05859C1.7309 6.61494 2.13257 6.0223 2.6846 5.42773C3.78857 4.23884 5.53727 3.00007 8.001 3ZM8.001 4.5C6.08949 4.50007 4.71164 5.44947 3.78421 6.44824C3.32082 6.94729 2.98007 7.44859 2.75589 7.8252C2.68855 7.93831 2.63167 8.03946 2.58596 8.125C2.63172 8.21065 2.68841 8.31241 2.75589 8.42578C2.98005 8.80235 3.32089 9.30373 3.78421 9.80273C4.71164 10.8015 6.08949 11.7509 8.001 11.751C9.91237 11.7509 11.2894 10.8014 12.2168 9.80273C12.6802 9.30373 13.0209 8.80239 13.2451 8.42578C13.3125 8.31258 13.3684 8.21057 13.4141 8.125C13.3685 8.03962 13.3123 7.93799 13.2451 7.8252C13.0209 7.4486 12.6801 6.94717 12.2168 6.44824C11.2894 5.44959 9.91228 4.5001 8.001 4.5ZM8.001 5.5C9.45054 5.50018 10.6257 6.67549 10.626 8.125C10.626 9.57475 9.45071 10.7498 8.001 10.75C6.55124 10.7499 5.376 9.57479 5.376 8.125C5.37628 6.67544 6.55141 5.50011 8.001 5.5ZM8.001 7C7.37983 7.00011 6.87628 7.50387 6.876 8.125C6.876 8.74636 7.37966 9.24989 8.001 9.25C8.62228 9.24982 9.126 8.74632 9.126 8.125C9.12573 7.50391 8.62211 7.00018 8.001 7ZM1.75003 8.125L1.06057 8.4209C0.979832 8.23232 0.979786 8.01864 1.06057 7.83008L1.75003 8.125ZM14.9405 7.83008C15.0213 8.01872 15.0213 8.23225 14.9405 8.4209L14.251 8.125L14.9405 7.83008Z" fill="#101010"/>
</svg>
