<!--
SPDX-FileCopyrightText: 2025 Devanshi Sachan <devs221102@gmail.com>
SPDX-License-Identifier: CC-BY-4.0
-->
<svg width="16" height="16" viewBox="0 0 16 16" fill="none" xmlns="http://www.w3.org/2000/svg">
<path d="M14.9951 14.0049L14.0049 14.9951L11.124 12.1143C10.1659 12.6313 9.09195 12.904 7.99707 12.9014V12.9023L7.99609 12.9014L7.99512 12.9023V12.9014C5.63633 12.9006 3.96252 11.7157 2.9043 10.5762C2.37501 10.0062 1.98962 9.43818 1.73633 9.0127C1.60941 8.79947 1.51443 8.61967 1.4502 8.49121C1.41825 8.42733 1.39305 8.37581 1.37598 8.33887C1.36752 8.32057 1.36032 8.30484 1.35547 8.29395C1.35319 8.28883 1.35108 8.28365 1.34961 8.28027C1.34903 8.27894 1.34814 8.27738 1.34766 8.27637V8.27441H1.34668C1.34655 8.27412 1.34697 8.27373 1.99023 7.99805L1.34668 8.27344C1.2677 8.08911 1.2717 7.87952 1.35742 7.69824C1.90935 6.53275 2.70832 5.50513 3.69531 4.68555L1 1.99023L1.99023 1L14.9951 14.0049ZM4.69141 5.68164C3.90113 6.31517 3.24735 7.1034 2.77246 8C2.81718 8.08394 2.87272 8.18477 2.93945 8.29688C3.15547 8.6597 3.4833 9.14329 3.92969 9.62402C4.82341 10.5864 6.15264 11.5028 7.99707 11.5029H7.99902C8.71758 11.5048 9.42363 11.352 10.0762 11.0664L9.21191 10.2021C9.13365 10.2479 9.05378 10.2911 8.9707 10.3281C8.66406 10.4647 8.3327 10.5379 7.99707 10.5439C7.66123 10.5499 7.32709 10.4881 7.01562 10.3623C6.70419 10.2365 6.42114 10.049 6.18359 9.81152C5.94608 9.57401 5.75866 9.29093 5.63281 8.97949C5.50697 8.66795 5.44525 8.33399 5.45117 7.99805C5.45711 7.66211 5.53025 7.33034 5.66699 7.02344C5.70403 6.94036 5.74531 6.85946 5.79102 6.78125L4.69141 5.68164ZM7.99707 3.0918C10.3572 3.09183 12.0323 4.27803 13.0908 5.41797C13.6203 5.98818 14.0055 6.55689 14.2588 6.98242C14.3856 7.19551 14.4807 7.37454 14.5449 7.50293C14.5771 7.56721 14.6021 7.61926 14.6191 7.65625C14.6276 7.67448 14.6338 7.68933 14.6387 7.7002C14.6411 7.70555 14.643 7.71042 14.6445 7.71387C14.6453 7.71559 14.646 7.71752 14.6465 7.71875L14.6475 7.71973V7.72168C14.7259 7.90481 14.7229 8.11243 14.6387 8.29297C14.3463 8.91881 13.9799 9.50771 13.5469 10.0459L13.1084 10.5908L12.0176 9.71387L12.4561 9.16797L12.7178 8.82227C12.905 8.55848 13.0715 8.28074 13.2217 7.99414C13.177 7.91031 13.1223 7.81014 13.0557 7.69824C12.8396 7.33533 12.5111 6.85214 12.0645 6.37109C11.1708 5.40872 9.8424 4.49246 7.99805 4.49219C7.77181 4.49263 7.54579 4.5072 7.32129 4.53516L6.62598 4.62109L6.45312 3.23242L7.14746 3.14551C7.4288 3.11046 7.71258 3.09233 7.99609 3.0918H7.99707ZM6.86719 7.85742C6.85782 7.91189 6.85158 7.96692 6.85059 8.02246C6.84797 8.17045 6.87523 8.31784 6.93066 8.45508C6.98605 8.59213 7.06836 8.71673 7.17285 8.82129C7.2775 8.92592 7.40283 9.00903 7.54004 9.06445C7.67702 9.1197 7.82399 9.14709 7.97168 9.14453C8.02719 9.14354 8.08214 9.1363 8.13672 9.12695L6.86719 7.85742Z" fill="#101010"/>
</svg>
