<!--
SPDX-FileCopyrightText: 2025 Devanshi Sachan <devs221102@gmail.com>
SPDX-License-Identifier: CC-BY-4.0
-->
<svg width="16" height="16" viewBox="0 0 16 16" fill="none" xmlns="http://www.w3.org/2000/svg">
<path d="M9.59552 1.00391C9.78862 1.02412 9.96879 1.11439 10.1014 1.25879L13.5135 4.97949C13.6486 5.12701 13.7234 5.32043 13.7234 5.52051V14.2012C13.723 14.6425 13.3651 15.0009 12.9236 15.001H2.99982C2.55852 15.0007 2.20051 14.6424 2.20001 14.2012V1.7998C2.20001 1.35814 2.55821 1.00026 2.99982 1H9.51251L9.59552 1.00391ZM3.79962 13.4004H12.1238V7.25H8.99591C8.55428 7.25 8.19643 6.89175 8.19611 6.4502V2.59961H3.79962V13.4004ZM9.79572 5.64941H11.9568L9.79572 3.29199V5.64941Z" fill="#101010"/>
</svg>
